<?xml version="1.0" encoding="UTF-8" standalone="no"?>
<svg
   xmlns:dc="http://purl.org/dc/elements/1.1/"
   xmlns:cc="http://creativecommons.org/ns#"
   xmlns:rdf="http://www.w3.org/1999/02/22-rdf-syntax-ns#"
   xmlns:svg="http://www.w3.org/2000/svg"
   xmlns="http://www.w3.org/2000/svg"
   xmlns:sodipodi="http://sodipodi.sourceforge.net/DTD/sodipodi-0.dtd"
   xmlns:inkscape="http://www.inkscape.org/namespaces/inkscape"
   inkscape:version="1.0 (4035a4fb49, 2020-05-01)"
   height="8"
   width="25"
   sodipodi:docname="mastercard-logo.svg"
   id="svg151"
   version="1.1"
   viewBox="0 0 24.999999 7.9999998">
  <metadata
     id="metadata155">
    <rdf:RDF>
      <cc:Work
         rdf:about="">
        <dc:format>image/svg+xml</dc:format>
        <dc:type
           rdf:resource="http://purl.org/dc/dcmitype/StillImage" />
        <dc:title>mc_vrt_rgb_pos</dc:title>
      </cc:Work>
    </rdf:RDF>
  </metadata>
  <sodipodi:namedview
     inkscape:current-layer="Layer_1-2"
     inkscape:window-maximized="1"
     inkscape:window-y="-8"
     inkscape:window-x="-8"
     inkscape:cy="20.660569"
     inkscape:cx="12.359891"
     inkscape:zoom="14.118428"
     showgrid="false"
     id="namedview153"
     inkscape:window-height="1017"
     inkscape:window-width="1920"
     inkscape:pageshadow="2"
     inkscape:pageopacity="0"
     guidetolerance="10"
     gridtolerance="10"
     objecttolerance="10"
     borderopacity="1"
     bordercolor="#666666"
     pagecolor="#ffffff" />
  <defs
     id="defs133">
    <style
       id="style131">.cls-1{fill:none;}.cls-2{fill:#231f20;}.cls-3{fill:#ff5f00;}.cls-4{fill:#eb001b;}.cls-5{fill:#f79e1b;}</style>
  </defs>
  <title
     id="title135">mc_vrt_rgb_pos</title>
  <g
     data-name="Layer 2"
     id="Layer_2">
    <g
       data-name="Layer 1"
       id="Layer_1-2">
      <rect
         y="0"
         x="0"
         id="rect137"
         height="120.41"
         width="146.8"
         class="cls-1" />
      <g
         transform="matrix(0.11109518,0,0,0.11109827,4.34532,-1.683232)"
         data-name="&lt;Group&gt;"
         id="_Group_">
        <rect
           id="rect141"
           height="56.610001"
           width="31.5"
           y="22.85"
           x="57.650002"
           class="cls-3" />
        <path
           d="M 59.65,51.16 A 35.94,35.94 0 0 1 73.4,22.85 36,36 0 1 0 73.4,79.46 35.94,35.94 0 0 1 59.65,51.16 Z"
           class="cls-4"
           data-name="&lt;Path&gt;"
           id="_Path_" />
        <path
           id="path144"
           d="m 131.65,51.16 a 36,36 0 0 1 -58.25,28.3 36,36 0 0 0 0,-56.61 36,36 0 0 1 58.25,28.3 z"
           class="cls-5" />
        <path
           id="path146"
           d="M 128.21,73.46 V 72.3 h 0.47 v -0.24 h -1.19 V 72.3 H 128 v 1.16 z m 2.31,0 v -1.4 h -0.36 l -0.42,1 -0.42,-1 H 129 v 1.4 h 0.26 v -1.05 l 0.39,0.91 h 0.27 l 0.39,-0.91 v 1.06 z"
           class="cls-5" />
      </g>
    </g>
  </g>
</svg>
